<?xml version="1.0" encoding="UTF-8"?>
<svg xmlns="http://www.w3.org/2000/svg" version="1.1" xmlns:xlink="http://www.w3.org/1999/xlink" viewBox="0 0 400 200">
  <!-- Generator: Adobe Illustrator 29.8.6, SVG Export Plug-In . SVG Version: 2.1.1 Build 1)  -->
  <defs>
    <style>
      .st0 {
        filter: url(#outer-glow-5);
      }

      .st0, .st1, .st2, .st3, .st4, .st5, .st6, .st7, .st8, .st9 {
        fill: #fff;
      }

      .st10 {
        fill: url(#Gold_024);
      }

      .st1 {
        filter: url(#outer-glow-6);
      }

      .st11 {
        fill: #010002;
      }

      .st12 {
        fill: url(#Gold_025);
      }

      .st13 {
        fill: url(#Gold_028);
      }

      .st14 {
        fill: url(#Gold_0216);
      }

      .st15 {
        fill: url(#Gold_0210);
      }

      .st3 {
        filter: url(#outer-glow-9);
      }

      .st16 {
        fill: url(#Gold_026);
      }

      .st4 {
        filter: url(#outer-glow-7);
      }

      .st17 {
        fill: url(#Gold_02);
      }

      .st18 {
        fill: url(#Gold_021);
      }

      .st19 {
        fill: url(#Gold_0214);
      }

      .st20 {
        fill: url(#Gold_029);
      }

      .st5 {
        filter: url(#outer-glow-3);
      }

      .st21 {
        isolation: isolate;
      }

      .st22 {
        fill: url(#Gold_027);
      }

      .st23 {
        fill: url(#Gold_0211);
      }

      .st24 {
        fill: url(#Gold_0213);
      }

      .st6 {
        filter: url(#outer-glow-2);
      }

      .st25 {
        fill: url(#Gold_023);
      }

      .st26 {
        fill: url(#Gold_022);
      }

      .st27 {
        fill: url(#Gold_0212);
      }

      .st7 {
        filter: url(#outer-glow-4);
      }

      .st8 {
        filter: url(#outer-glow-1);
      }

      .st9 {
        filter: url(#outer-glow-8);
      }

      .st28 {
        fill: url(#Gold_0215);
      }

      .st29 {
        fill: #f5f7fb;
      }
    </style>
    <linearGradient id="Gold_02" data-name="Gold 02" x1="289.76" y1="117.76" x2="289.76" y2="122.43" gradientUnits="userSpaceOnUse">
      <stop offset="0" stop-color="#ba7802"/>
      <stop offset=".18" stop-color="#d19a2c"/>
      <stop offset=".39" stop-color="#ebc15c"/>
      <stop offset=".5" stop-color="#f5d06f"/>
      <stop offset=".61" stop-color="#ebc15c"/>
      <stop offset=".82" stop-color="#d19a2c"/>
      <stop offset="1" stop-color="#ba7802"/>
    </linearGradient>
    <linearGradient id="Gold_021" data-name="Gold 02" x1="159.49" x2="159.49" xlink:href="#Gold_02"/>
    <filter id="outer-glow-1" x="123" y="58" width="29" height="55" filterUnits="userSpaceOnUse">
      <feOffset dx="0" dy="0"/>
      <feGaussianBlur result="blur" stdDeviation="2"/>
      <feFlood flood-color="#fff" flood-opacity=".23"/>
      <feComposite in2="blur" operator="in"/>
      <feComposite in="SourceGraphic"/>
    </filter>
    <filter id="outer-glow-2" x="143" y="59" width="30" height="53" filterUnits="userSpaceOnUse">
      <feOffset dx="0" dy="0"/>
      <feGaussianBlur result="blur1" stdDeviation="2"/>
      <feFlood flood-color="#fff" flood-opacity=".23"/>
      <feComposite in2="blur1" operator="in"/>
      <feComposite in="SourceGraphic"/>
    </filter>
    <filter id="outer-glow-3" x="165" y="60" width="31" height="50" filterUnits="userSpaceOnUse">
      <feOffset dx="0" dy="0"/>
      <feGaussianBlur result="blur2" stdDeviation="2"/>
      <feFlood flood-color="#fff" flood-opacity=".23"/>
      <feComposite in2="blur2" operator="in"/>
      <feComposite in="SourceGraphic"/>
    </filter>
    <filter id="outer-glow-4" x="188" y="61" width="30" height="48" filterUnits="userSpaceOnUse">
      <feOffset dx="0" dy="0"/>
      <feGaussianBlur result="blur3" stdDeviation="2"/>
      <feFlood flood-color="#fff" flood-opacity=".23"/>
      <feComposite in2="blur3" operator="in"/>
      <feComposite in="SourceGraphic"/>
    </filter>
    <filter id="outer-glow-5" x="210" y="61" width="32" height="46" filterUnits="userSpaceOnUse">
      <feOffset dx="0" dy="0"/>
      <feGaussianBlur result="blur4" stdDeviation="2"/>
      <feFlood flood-color="#fff" flood-opacity=".23"/>
      <feComposite in2="blur4" operator="in"/>
      <feComposite in="SourceGraphic"/>
    </filter>
    <filter id="outer-glow-6" x="235" y="61" width="31" height="47" filterUnits="userSpaceOnUse">
      <feOffset dx="0" dy="0"/>
      <feGaussianBlur result="blur5" stdDeviation="2"/>
      <feFlood flood-color="#fff" flood-opacity=".23"/>
      <feComposite in2="blur5" operator="in"/>
      <feComposite in="SourceGraphic"/>
    </filter>
    <filter id="outer-glow-7" x="257" y="60" width="34" height="50" filterUnits="userSpaceOnUse">
      <feOffset dx="0" dy="0"/>
      <feGaussianBlur result="blur6" stdDeviation="2"/>
      <feFlood flood-color="#fff" flood-opacity=".23"/>
      <feComposite in2="blur6" operator="in"/>
      <feComposite in="SourceGraphic"/>
    </filter>
    <filter id="outer-glow-8" x="282" y="59" width="33" height="53" filterUnits="userSpaceOnUse">
      <feOffset dx="0" dy="0"/>
      <feGaussianBlur result="blur7" stdDeviation="2"/>
      <feFlood flood-color="#fff" flood-opacity=".23"/>
      <feComposite in2="blur7" operator="in"/>
      <feComposite in="SourceGraphic"/>
    </filter>
    <filter id="outer-glow-9" x="303" y="58" width="34" height="55" filterUnits="userSpaceOnUse">
      <feOffset dx="0" dy="0"/>
      <feGaussianBlur result="blur8" stdDeviation="2"/>
      <feFlood flood-color="#fff" flood-opacity=".23"/>
      <feComposite in2="blur8" operator="in"/>
      <feComposite in="SourceGraphic"/>
    </filter>
    <linearGradient id="Gold_022" data-name="Gold 02" x1="137.2" y1="65.87" x2="137.2" y2="105.65" xlink:href="#Gold_02"/>
    <linearGradient id="Gold_023" data-name="Gold 02" x1="158.25" y1="66.59" x2="158.25" y2="104.13" xlink:href="#Gold_02"/>
    <linearGradient id="Gold_024" data-name="Gold 02" x1="180.3" y1="67.12" x2="180.3" y2="102.51" xlink:href="#Gold_02"/>
    <linearGradient id="Gold_025" data-name="Gold 02" x1="203.13" y1="68.16" x2="203.13" y2="100.86" xlink:href="#Gold_02"/>
    <linearGradient id="Gold_026" data-name="Gold 02" x1="225.99" y1="68.92" x2="225.99" y2="99.27" xlink:href="#Gold_02"/>
    <linearGradient id="Gold_027" data-name="Gold 02" x1="250.55" y1="68.61" x2="250.55" y2="99.94" xlink:href="#Gold_02"/>
    <linearGradient id="Gold_028" data-name="Gold 02" x1="274" y1="67.68" x2="274" y2="102.27" xlink:href="#Gold_02"/>
    <linearGradient id="Gold_029" data-name="Gold 02" x1="298.09" y1="66.97" x2="298.09" y2="103.96" xlink:href="#Gold_02"/>
    <linearGradient id="Gold_0210" data-name="Gold 02" x1="320.36" y1="65.87" x2="320.36" y2="105.18" xlink:href="#Gold_02"/>
    <linearGradient id="Gold_0211" data-name="Gold 02" x1="106.36" y1="127.36" x2="55.57" y2="76.58" xlink:href="#Gold_02"/>
    <linearGradient id="Gold_0212" data-name="Gold 02" x1="101.18" y1="125.04" x2="78.7" y2="102.55" xlink:href="#Gold_02"/>
    <linearGradient id="Gold_0213" data-name="Gold 02" x1="102.96" y1="90.27" x2="81.94" y2="69.24" xlink:href="#Gold_02"/>
    <linearGradient id="Gold_0214" data-name="Gold 02" x1="82.39" y1="86.52" x2="75.32" y2="79.44" xlink:href="#Gold_02"/>
    <linearGradient id="Gold_0215" data-name="Gold 02" x1="86.1" y1="83.55" x2="77.08" y2="74.53" xlink:href="#Gold_02"/>
    <linearGradient id="Gold_0216" data-name="Gold 02" x1="91.07" y1="79.83" x2="81.72" y2="70.48" xlink:href="#Gold_02"/>
  </defs>
  <g id="Layer_1">
    <rect class="st11" x="-1.8" y="-9.5" width="403.6" height="217.53"/>
  </g>
  <g id="Layer_2">
    <g>
      <g class="st21">
        <path class="st29" d="M192.4,110.02h4.18l3.2,19.65h-3.09l-.56-3.9v.06h-3.51l-.56,3.85h-2.86l3.2-19.65ZM195.77,123.15l-1.38-9.71h-.06l-1.35,9.71h2.78Z"/>
        <path class="st29" d="M205.14,110.02h4.58c1.59,0,2.75.37,3.48,1.11.73.74,1.09,1.88,1.09,3.41v1.21c0,2.04-.67,3.33-2.02,3.87v.06c.75.22,1.28.68,1.59,1.38s.46,1.62.46,2.78v3.45c0,.56.02,1.02.06,1.36.04.35.13.69.28,1.02h-3.14c-.11-.32-.19-.62-.22-.9-.04-.28-.06-.79-.06-1.52v-3.59c0-.9-.15-1.52-.44-1.88-.29-.35-.79-.53-1.5-.53h-1.07v8.42h-3.09v-19.65ZM209.35,118.44c.62,0,1.08-.16,1.39-.48s.46-.85.46-1.6v-1.52c0-.71-.13-1.23-.38-1.54-.25-.32-.65-.48-1.19-.48h-1.4v5.61h1.12Z"/>
        <path class="st29" d="M220.32,110.02h8.42v2.81h-5.33v5.19h4.24v2.81h-4.24v6.04h5.33v2.81h-8.42v-19.65Z"/>
        <path class="st29" d="M234.39,110.02h3.87l3,11.76h.06v-11.76h2.75v19.65h-3.17l-3.71-14.34h-.06v14.34h-2.75v-19.65Z"/>
        <path class="st29" d="M252.63,110.02h4.18l3.2,19.65h-3.09l-.56-3.9v.06h-3.51l-.56,3.85h-2.86l3.2-19.65ZM256,123.15l-1.38-9.71h-.06l-1.35,9.71h2.78Z"/>
      </g>
      <polygon class="st17" points="266.26 117.76 313.26 120.1 266.26 122.43 266.26 117.76 266.26 117.76"/>
      <polygon class="st18" points="182.99 122.43 135.99 120.1 182.99 117.76 182.99 122.43 182.99 122.43"/>
    </g>
    <g>
      <polygon class="st8" points="129.01 64.73 136.56 65 136.56 98.5 145.39 97.99 145.39 105.63 129.01 106.82 129.01 64.73"/>
      <path class="st2" d="M130.1,65.87c2.15.08,3.22.11,5.37.19,0,11.2,0,22.4,0,33.61,3.53-.2,5.3-.3,8.83-.51,0,2.19,0,3.28,0,5.46-5.68.41-8.52.62-14.2,1.04v-39.78Z"/>
      <polygon class="st6" points="149.84 65.46 166.66 66.05 166.66 73.35 157.39 73.17 157.39 80.73 164.76 80.66 164.75 87.99 157.39 88.17 157.39 97.3 166.66 96.77 166.66 104.08 149.84 105.3 149.84 65.46"/>
      <path class="st2" d="M150.93,66.59c5.85.2,8.78.31,14.64.51,0,2.05,0,3.08,0,5.14-3.71-.07-5.56-.11-9.27-.18,0,3.91,0,5.86,0,9.77,2.95-.03,4.42-.04,7.37-.07,0,2.07,0,3.1,0,5.17-2.95.07-4.42.11-7.37.18,0,4.54,0,6.81,0,11.35,3.71-.21,5.56-.32,9.27-.53,0,2.05,0,3.08,0,5.14-5.85.43-8.78.64-14.64,1.07,0-12.51,0-25.02,0-37.54Z"/>
      <path class="st5" d="M179.37,103.61c-2.46,0-4.42-.74-5.82-2.2-1.56-1.63-2.35-4.04-2.35-7.18v-18.52c0-3.13.79-5.57,2.34-7.25,1.49-1.6,3.6-2.42,6.28-2.42.17,0,.34,0,.51,0,2.88.11,5.15,1.04,6.72,2.77,1.55,1.7,2.33,4.07,2.33,7.04v3.96s-7.26,0-7.26,0v-4.35c0-2.11-.88-2.31-1.71-2.32h-.04c-.67,0-1.63.04-1.63,2.27v18.96c0,.8.14,1.4.4,1.73.13.17.38.39,1.04.39.06,0,.12,0,.19,0,.85-.05,1.75-.28,1.75-2.38v-5.54s-2.68.07-2.68.07v-7.11s9.94-.12,9.94-.12v12.07c0,2.96-.78,5.35-2.32,7.11-1.56,1.78-3.81,2.79-6.69,3-.34.03-.68.04-1,.04Z"/>
      <path class="st2" d="M174.35,100.65c-1.37-1.42-2.05-3.58-2.05-6.43,0-7.41,0-11.11,0-18.52,0-2.85.68-5.03,2.05-6.51,1.37-1.48,3.35-2.15,5.95-2.06,2.6.09,4.59.91,5.95,2.41,1.37,1.5,2.05,3.59,2.05,6.31,0,1.15,0,1.72,0,2.87-2.03,0-3.04,0-5.07,0,0-1.3,0-1.96,0-3.26,0-2.24-.93-3.38-2.78-3.42-1.85-.04-2.78,1.08-2.78,3.36,0,7.58,0,11.38,0,18.96,0,2.24.93,3.31,2.78,3.2s2.78-1.27,2.78-3.47c0-2.67,0-4,0-6.67-1.07.03-1.61.04-2.68.07,0-1.96,0-2.94,0-4.91,3.1-.04,4.65-.06,7.76-.09,0,4.38,0,6.58,0,10.96,0,2.71-.68,4.83-2.05,6.38-1.37,1.55-3.35,2.44-5.95,2.64-2.6.19-4.59-.41-5.95-1.83Z"/>
      <polygon class="st7" points="194.72 67.03 211.54 67.62 211.54 74.23 202.27 74.05 202.27 80.32 209.64 80.26 209.64 86.9 202.27 87.08 202.27 94.72 211.54 94.19 211.54 100.8 194.72 102.03 194.72 67.03"/>
      <path class="st2" d="M195.82,68.16c5.85.2,8.78.31,14.64.51,0,1.78,0,2.67,0,4.44-3.71-.07-5.56-.11-9.27-.18,0,3.39,0,5.09,0,8.49,2.95-.03,4.42-.04,7.37-.07,0,1.79,0,2.68,0,4.47-2.95.07-4.42.11-7.37.18,0,3.95,0,5.92,0,9.86,3.71-.21,5.56-.32,9.27-.53,0,1.78,0,2.67,0,4.44-5.85.43-8.78.64-14.64,1.07,0-10.9,0-21.8,0-32.7Z"/>
      <path class="st0" d="M216.48,67.79l8.65.3.22.76c1.3,4.45,2.19,7.48,3.18,10.82v-11.47h1.35c1.38,0,2.25-.03,3.47-.08l2.15-.08v31.82s-1.14-.06-1.14-.06c-1.76-.09-2.76-.12-4.11-.12-.41,0-2.16.02-2.16.02l-1.25-4.13c-1.27-4.21-2.25-7.44-3.39-11.26v15.61s-6.97.51-6.97.51v-32.65Z"/>
      <path class="st2" d="M217.57,68.92c2.69.09,4.04.14,6.73.24,2.09,7.17,3.13,10.67,5.22,17.69.04,0,.06,0,.1,0,0-7.02,0-10.53,0-17.54,1.91,0,2.87-.05,4.78-.12,0,11.82,0,17.73,0,29.54-2.21-.11-3.31-.14-5.52-.11-2.58-8.53-3.87-12.75-6.44-21.47-.04,0-.06,0-.1,0,0,8.71,0,13.07,0,21.78-1.91.14-2.87.21-4.78.35,0-12.14,0-18.21,0-30.35Z"/>
      <path class="st1" d="M251.71,101.03c-.37,0-.75-.01-1.14-.04l-9.21-.67v-32.46s9.24-.32,9.24-.32c.2,0,.39-.01.57-.01,2.69,0,4.79.71,6.23,2.12,1.55,1.51,2.33,3.74,2.33,6.65v16.25c0,2.91-.79,5.13-2.34,6.59-1.35,1.26-3.26,1.9-5.69,1.9ZM250.62,94.33c.07,0,.13,0,.2,0,.69,0,.93-.23,1.01-.3.24-.23.37-.78.37-1.52v-16.41c0-.76-.14-1.31-.39-1.56-.24-.24-.62-.36-1.16-.36v-1.09l-.07,1.09-1.66.03v20.02s1.71.1,1.71.1Z"/>
      <path class="st2" d="M242.45,68.91c3.28-.11,4.92-.17,8.2-.29,2.67-.09,4.67.5,6,1.8,1.33,1.3,2,3.26,2,5.87,0,6.5,0,9.75,0,16.25,0,2.6-.67,4.54-2,5.79-1.33,1.25-3.33,1.76-6,1.57-3.28-.24-4.92-.36-8.19-.6,0-12.15,0-18.24,0-30.39ZM250.55,95.42c.88.05,1.55-.15,2.02-.6.47-.45.71-1.22.71-2.31,0-6.56,0-9.85,0-16.41,0-1.08-.24-1.86-.71-2.33-.47-.47-1.15-.7-2.02-.68-1.09.02-1.64.03-2.73.05,0,8.85,0,13.27,0,22.12,1.09.06,1.64.09,2.73.16Z"/>
      <path class="st4" d="M276.87,102.9l-.96-6.73-4.23-.22-.98,6.5-7.18-.52.2-1.19c1.84-10.71,3.71-21.81,5.56-32.99l.14-.88,9.12-.32.16.95c1.91,11.67,3.8,23.49,5.56,34.6l.22,1.36-7.62-.56ZM274.95,89.34c-.45-3.2-.8-5.65-1.17-8.21-.36,2.55-.7,4.97-1.15,8.12l2.32.09Z"/>
      <path class="st2" d="M270.36,67.93c2.91-.1,4.36-.15,7.27-.25,1.89,11.52,3.73,23.06,5.56,34.59-2.15-.16-3.22-.23-5.37-.39-.39-2.75-.59-4.11-.98-6.84v.1c-2.44-.13-3.66-.19-6.1-.32-.39,2.6-.59,3.89-.98,6.47-1.99-.15-2.99-.22-4.98-.36,1.89-10.99,3.74-21.99,5.56-32.99ZM276.21,90.48c-.96-6.76-1.44-10.12-2.39-16.78-.04,0-.06,0-.1,0-.94,6.69-1.4,10.01-2.34,16.6,1.93.07,2.9.11,4.83.18Z"/>
      <path class="st9" d="M300.09,104.6l-.23-.7c-.21-.67-.36-1.31-.43-1.91-.07-.57-.11-1.54-.11-2.97v-6.7c0-1.87-.34-2.61-.54-2.88-.29-.39-.88-.6-1.76-.62l-.73-.02v15.52s-7.55-.55-7.55-.55v-37.57s9-.31,9-.31c.2,0,.4-.01.59-.01,2.79,0,4.91.75,6.3,2.23,1.46,1.56,2.2,3.96,2.2,7.15v2.29c0,3.38-.85,5.81-2.54,7.27.74.59,1.31,1.38,1.7,2.35.59,1.45.88,3.36.88,5.7v6.54c0,1.02.03,1.85.09,2.48.06.56.2,1.12.42,1.68l.64,1.62-7.93-.58ZM297.16,81.46c.78,0,1.28-.17,1.59-.5.2-.21.52-.79.52-2.24v-2.83c0-1.41-.28-1.99-.44-2.21-.13-.18-.39-.41-1.11-.41v-1.09l-.06,1.09-1.37.03v8.16s.88,0,.88,0Z"/>
      <path class="st2" d="M289.82,67.25c3.18-.11,4.77-.17,7.95-.28,2.77-.1,4.78.52,6.05,1.88,1.27,1.36,1.9,3.5,1.9,6.4,0,.91,0,1.37,0,2.29,0,3.86-1.17,6.3-3.51,7.27v.1c1.3.44,2.22,1.33,2.76,2.65.54,1.32.8,3.09.8,5.29,0,2.62,0,3.92,0,6.54,0,1.06.03,1.93.1,2.59.07.66.23,1.32.49,1.98-2.19-.16-3.28-.24-5.46-.4-.2-.61-.33-1.18-.39-1.7-.07-.53-.1-1.47-.1-2.83,0-2.68,0-4.02,0-6.7,0-1.67-.25-2.85-.76-3.53-.5-.68-1.37-1.03-2.61-1.06-.74-.02-1.11-.03-1.85-.05,0,6.19,0,9.28,0,15.46-2.15-.16-3.22-.23-5.37-.39,0-11.83,0-23.67,0-35.5ZM297.14,82.55c1.07.01,1.88-.27,2.41-.86.54-.59.81-1.58.81-2.98,0-1.13,0-1.7,0-2.83,0-1.33-.22-2.28-.66-2.87-.44-.58-1.13-.87-2.07-.85-.98.02-1.46.03-2.44.05,0,4.12,0,6.18,0,10.31.78,0,1.17.01,1.95.02Z"/>
      <path class="st3" d="M316.59,105.8v-17.25c-2.57-8.83-3.84-13.12-6.44-21.73l-.41-1.36,8-.28.22.84c1.09,4.15,1.77,6.78,2.65,10.2.88-3.44,1.56-6.13,2.65-10.45l.2-.8,7.53-.26-.4,1.44c-2.57,9.16-3.85,13.61-6.45,22.53v17.66l-7.55-.55Z"/>
      <path class="st2" d="M317.68,88.39c-2.6-8.92-3.89-13.29-6.49-21.89,2.28-.08,3.42-.12,5.71-.2,1.46,5.59,2.2,8.42,3.66,14.12h.1c1.46-5.69,2.2-8.57,3.66-14.38,2.09-.07,3.13-.11,5.22-.18-2.6,9.23-3.89,13.76-6.49,22.67,0,6.66,0,9.98,0,16.64-2.15-.16-3.22-.23-5.37-.39,0-6.56,0-9.83,0-16.39Z"/>
      <path class="st26" d="M130.1,65.87c2.15.08,3.22.11,5.37.19,0,11.2,0,22.4,0,33.61,3.53-.2,5.3-.3,8.83-.51,0,2.19,0,3.28,0,5.46-5.68.41-8.52.62-14.2,1.04v-39.78Z"/>
      <path class="st25" d="M150.93,66.59c5.85.2,8.78.31,14.64.51,0,2.05,0,3.08,0,5.14-3.71-.07-5.56-.11-9.27-.18,0,3.91,0,5.86,0,9.77,2.95-.03,4.42-.04,7.37-.07,0,2.07,0,3.1,0,5.17-2.95.07-4.42.11-7.37.18,0,4.54,0,6.81,0,11.35,3.71-.21,5.56-.32,9.27-.53,0,2.05,0,3.08,0,5.14-5.85.43-8.78.64-14.64,1.07,0-12.51,0-25.02,0-37.54Z"/>
      <path class="st10" d="M174.35,100.65c-1.37-1.42-2.05-3.58-2.05-6.43,0-7.41,0-11.11,0-18.52,0-2.85.68-5.03,2.05-6.51,1.37-1.48,3.35-2.15,5.95-2.06,2.6.09,4.59.91,5.95,2.41,1.37,1.5,2.05,3.59,2.05,6.31,0,1.15,0,1.72,0,2.87-2.03,0-3.04,0-5.07,0,0-1.3,0-1.96,0-3.26,0-2.24-.93-3.38-2.78-3.42-1.85-.04-2.78,1.08-2.78,3.36,0,7.58,0,11.38,0,18.96,0,2.24.93,3.31,2.78,3.2s2.78-1.27,2.78-3.47c0-2.67,0-4,0-6.67-1.07.03-1.61.04-2.68.07,0-1.96,0-2.94,0-4.91,3.1-.04,4.65-.06,7.76-.09,0,4.38,0,6.58,0,10.96,0,2.71-.68,4.83-2.05,6.38-1.37,1.55-3.35,2.44-5.95,2.64-2.6.19-4.59-.41-5.95-1.83Z"/>
      <path class="st12" d="M195.82,68.16c5.85.2,8.78.31,14.64.51,0,1.78,0,2.67,0,4.44-3.71-.07-5.56-.11-9.27-.18,0,3.39,0,5.09,0,8.49,2.95-.03,4.42-.04,7.37-.07,0,1.79,0,2.68,0,4.47-2.95.07-4.42.11-7.37.18,0,3.95,0,5.92,0,9.86,3.71-.21,5.56-.32,9.27-.53,0,1.78,0,2.67,0,4.44-5.85.43-8.78.64-14.64,1.07,0-10.9,0-21.8,0-32.7Z"/>
      <path class="st16" d="M217.57,68.92c2.69.09,4.04.14,6.73.24,2.09,7.17,3.13,10.67,5.22,17.69.04,0,.06,0,.1,0,0-7.02,0-10.53,0-17.54,1.91,0,2.87-.05,4.78-.12,0,11.82,0,17.73,0,29.54-2.21-.11-3.31-.14-5.52-.11-2.58-8.53-3.87-12.75-6.44-21.47-.04,0-.06,0-.1,0,0,8.71,0,13.07,0,21.78-1.91.14-2.87.21-4.78.35,0-12.14,0-18.21,0-30.35Z"/>
      <path class="st22" d="M242.45,68.91c3.28-.11,4.92-.17,8.2-.29,2.67-.09,4.67.5,6,1.8,1.33,1.3,2,3.26,2,5.87,0,6.5,0,9.75,0,16.25,0,2.6-.67,4.54-2,5.79-1.33,1.25-3.33,1.76-6,1.57-3.28-.24-4.92-.36-8.19-.6,0-12.15,0-18.24,0-30.39ZM250.55,95.42c.88.05,1.55-.15,2.02-.6.47-.45.71-1.22.71-2.31,0-6.56,0-9.85,0-16.41,0-1.08-.24-1.86-.71-2.33-.47-.47-1.15-.7-2.02-.68-1.09.02-1.64.03-2.73.05,0,8.85,0,13.27,0,22.12,1.09.06,1.64.09,2.73.16Z"/>
      <path class="st13" d="M270.36,67.93c2.91-.1,4.36-.15,7.27-.25,1.89,11.52,3.73,23.06,5.56,34.59-2.15-.16-3.22-.23-5.37-.39-.39-2.75-.59-4.11-.98-6.84v.1c-2.44-.13-3.66-.19-6.1-.32-.39,2.6-.59,3.89-.98,6.47-1.99-.15-2.99-.22-4.98-.36,1.89-10.99,3.74-21.99,5.56-32.99ZM276.21,90.48c-.96-6.76-1.44-10.12-2.39-16.78-.04,0-.06,0-.1,0-.94,6.69-1.4,10.01-2.34,16.6,1.93.07,2.9.11,4.83.18Z"/>
      <path class="st20" d="M289.82,67.25c3.18-.11,4.77-.17,7.95-.28,2.77-.1,4.78.52,6.05,1.88,1.27,1.36,1.9,3.5,1.9,6.4,0,.91,0,1.37,0,2.29,0,3.86-1.17,6.3-3.51,7.27v.1c1.3.44,2.22,1.33,2.76,2.65.54,1.32.8,3.09.8,5.29,0,2.62,0,3.92,0,6.54,0,1.06.03,1.93.1,2.59.07.66.23,1.32.49,1.98-2.19-.16-3.28-.24-5.46-.4-.2-.61-.33-1.18-.39-1.7-.07-.53-.1-1.47-.1-2.83,0-2.68,0-4.02,0-6.7,0-1.67-.25-2.85-.76-3.53-.5-.68-1.37-1.03-2.61-1.06-.74-.02-1.11-.03-1.85-.05,0,6.19,0,9.28,0,15.46-2.15-.16-3.22-.23-5.37-.39,0-11.83,0-23.67,0-35.5ZM297.14,82.55c1.07.01,1.88-.27,2.41-.86.54-.59.81-1.58.81-2.98,0-1.13,0-1.7,0-2.83,0-1.33-.22-2.28-.66-2.87-.44-.58-1.13-.87-2.07-.85-.98.02-1.46.03-2.44.05,0,4.12,0,6.18,0,10.31.78,0,1.17.01,1.95.02Z"/>
      <path class="st15" d="M317.68,88.39c-2.6-8.92-3.89-13.29-6.49-21.89,2.28-.08,3.42-.12,5.71-.2,1.46,5.59,2.2,8.42,3.66,14.12h.1c1.46-5.69,2.2-8.57,3.66-14.38,2.09-.07,3.13-.11,5.22-.18-2.6,9.23-3.89,13.76-6.49,22.67,0,6.66,0,9.98,0,16.64-2.15-.16-3.22-.23-5.37-.39,0-6.56,0-9.83,0-16.39Z"/>
    </g>
    <g>
      <g>
        <path class="st23" d="M69.76,62.45c-.96.84-2.43,2.33-3.54,4.58-1.74,3.53-1.52,6.75-1.43,7.89.45,5.63,3.89,9.28,4.97,10.34-.84-.54-1.74-1.23-2.62-2.11-3.23-3.25-4.18-7.17-4.51-9.17-.09-.53-1.52,5.05.64,9.78,2.43,5.33,7.61,7.61,9.58,8.35-1.53-.25-4.01-.86-6.65-2.47-2.81-1.72-4.54-3.8-5.45-5.09.03.91.28,4.8,3.44,8.05,3.22,3.31,7.18,3.62,8.07,3.67-1.16.19-3.13.36-5.46-.18-2.31-.54-3.99-1.54-4.95-2.22.25.76,1.28,3.59,4.3,5.45,2.96,1.82,5.89,1.51,6.7,1.4-.89.37-2.15.79-3.69.97-1.84.22-3.39.02-4.43-.2.37.57,1.69,2.47,4.28,3.31,3.01.98,5.54-.2,6.06-.46-.54.59-1.33,1.31-2.39,1.96-1.51.92-2.93,1.29-3.87,1.45.49.35,1.3.83,2.39,1.12.63.17,1.85.48,3.34.1,1.59-.4,2.58-1.35,3.01-1.81-.31.75-.85,1.83-1.81,2.93-.9,1.04-1.84,1.71-2.52,2.11.69.1,1.7.18,2.9,0,.9-.13,1.72-.25,2.55-.79,1.25-.81,1.76-2.08,1.96-2.72.04.7.04,2.35-.97,4-1.72,2.83-4.91,3.26-5.35,3.31.6.23,1.48.52,2.6.66.83.11,1.61.21,2.47,0,1.55-.37,2.54-1.51,3.01-2.16.07.5.12,1.39-.2,2.42-.44,1.38-1.31,2.21-1.71,2.55,1.46,3.35,2.91,6.71,4.37,10.06.5.99,1.04,2,1.6,3.02,1.86,3.33,3.81,6.32,5.77,8.98-.13-.73-.31-1.54-.57-2.41-.36-1.2-.8-2.23-1.22-3.09-.98-2.36-1.96-4.71-2.94-7.07-1.03-8.88-2.06-17.75-3.09-26.63-.2.21-.68.66-1.41.8-.96.19-1.74-.26-1.95-.38-1.76-1.03-1.91-3.76-1.99-5.12-.05-.95-.02-2.51.61-4.39.48,0,1.11-.06,1.83-.27.52-.15.96-.35,1.3-.53-.65-.34-1.51-.88-2.37-1.72-.92-.89-1.51-1.78-1.87-2.44-1.29-.69-3.1-1.82-4.89-3.63-.8-.81-2.98-3.14-4.47-6.88-.48-1.21-1.33-3.39-1.45-6.34-.16-4.05,1.15-7.23,2.05-8.98Z"/>
        <path class="st27" d="M83.92,97.33c.36-.16.71-.32,1.07-.48.18-.04.36-.08.53-.11h.36c.62-.09,1.33-.23,2.1-.46.85-.25,1.58-.55,2.2-.84-.01.38-.08.96-.32,1.6-.23.61-.55,1.07-.78,1.36.93,1.57,1.86,3.13,2.79,4.7v31.25c-.39-.93-.78-1.88-1.17-2.87-.36-.91-.69-1.81-1.01-2.69-.04-.96-.1-2.47-.21-4.32-.13-2.24-.49-8.08-1.39-15.83-.15-1.31-.38-3.19-.69-5.46-.06-.63-.2-1.47-.57-2.39-.17-.42-.44-1.09-1.01-1.81-.62-.8-1.33-1.31-1.89-1.64Z"/>
        <path class="st24" d="M92.2,101.03c-.37-1.48-.71-2.8-1.02-3.92-.5-1.85-.71-2.5-1.2-3.29-.25-.41-.79-1.27-1.76-2.01-1.12-.87-1.95-.91-4.43-1.71-.73-.23-1.8-.6-3.11-1.12,1.37-.21,2.52-.51,3.44-.79,1.17-.36,1.77-.55,2.52-.99.29-.17,1.51-.92,2.57-2.42.68-.96,1.06-1.9,1.27-2.62.29-1.95.46-3.64.56-4.99.09-1.23.24-3.14.2-5.65-.02-1.54-.1-2.85-.18-3.82-.03-.3-.14-1.01-.66-1.71-.54-.72-1.22-1.02-1.5-1.12.26-.2.58-.47.92-.81,0,0,.68-.68,1.22-1.48,1.11-1.63,1.57-3.68,1.66-4.1v26c-.22.53-.56,1.18-1.07,1.86-.83,1.09-1.75,1.76-2.39,2.14.28.2.67.51,1.07.94,1.03,1.14,1.39,2.35,1.56,2.98.26.95.3,1.71.32,2.16.1,2.28.07,4.57,0,6.47Z"/>
        <path class="st19" d="M81.78,87.13c.21-.29.46-.6.76-.92.36-.38.71-.69,1.03-.94-1.7-.85-3.42-1.69-5.16-2.53-1.45-.7-2.88-1.39-4.32-2.08,1.1.97,2.23,1.95,3.39,2.93,1.44,1.22,2.88,2.4,4.29,3.54Z"/>
        <path class="st28" d="M84.59,84.36c.24-.26.58-.57,1.01-.86.43-.29.84-.48,1.17-.61-1.36-1.56-2.75-3.12-4.16-4.7-1.46-1.63-2.92-3.24-4.37-4.81,1.02,1.78,1.86,3.23,2.45,4.22.86,1.45,1.35,2.25,2.19,3.71.74,1.29,1.34,2.36,1.72,3.06Z"/>
        <path class="st14" d="M87.78,82.35c.4-.15.8-.29,1.2-.44.13-.95.25-1.9.38-2.85-.8-2.01-1.62-4.03-2.46-6.07-.75-1.83-1.51-3.64-2.27-5.42.72,3.08,1.23,5.49,1.57,7.16.19.93.52,2.59,1.03,5.02.23,1.09.42,1.99.55,2.6Z"/>
      </g>
      <g>
        <path class="st2" d="M114.11,105.87c-1.17-.46-1.82-1.27-2.06-1.6.4-.17.8-.35,1.2-.52.44-.37,1.02-.88,1.67-1.53,0,0,.61-.61,1.11-1.2,1.48-1.73,2.77-4.55,2.99-5.04-1.1.93-2.11,1.54-2.87,1.94-.87.46-1.58.83-2.61,1.01-.97.17-1.8.09-2.34,0-.16-.09-.35-.2-.55-.37-.17-.14-.3-.28-.41-.41.09-.32.2-.68.37-1.06.26-.6.57-1.09.84-1.46.05-.87.01-2.31-.59-3.95-.8-2.16-2.16-3.49-2.87-4.09-.2.13-.42.26-.67.38-.23.12-.45.21-.65.29-.27.66-.71,1.52-1.41,2.41-1.03,1.28-2.17,2.04-2.92,2.46.45.16.98.32,1.59.44.66.13,1.26.19,1.78.21.2.64.41,1.56.44,2.67.04,1.49-.28,2.59-.36,2.87-.24.8-.62,2.02-1.72,3.08-.43.41-.84.68-1.13.84-.23.03-.55.04-.92-.04-.82-.18-1.33-.69-1.53-.92.01.56.02,1.38-.02,2.37-.06,1.57-.18,2.69-.38,4.51-.27,2.39-.47,4.18-.59,5.23.34.38.58.72.74.97.66,1.03.92,2.01,1.09,2.65.07.26.12.48.15.64-.11.37-.28.8-.51,1.25-.2.39-.41.73-.61,1.01-.13-.32-.31-.68-.55-1.07-.29-.45-.59-.81-.85-1.09-.33,2.69-.66,5.37-.98,8.06.42-.22.98-.56,1.53-1.1.73-.72,1.14-1.46,1.37-1.96.06.47.1,1.16-.04,1.99-.02.1-.07.38-.17.74-.37,1.28-1.02,2.14-1.25,2.42-.32.4-.63.77-1.16,1.08-.36.21-.7.31-.94.37-.85,2.17-1.69,4.36-2.53,6.56-.59,1.54-1.16,3.08-1.73,4.61.94-.9,2.09-2.05,3.34-3.44,1.92-2.14,3.28-3.96,3.97-4.91.64-.88,1.64-2.28,2.78-4.2.94-1.6,2.07-3.73,3.13-6.37-.41.31-.83.63-1.25.94-.41.31-.82.61-1.22.92.07-1.42.45-2.49.74-3.13.28-.62.73-1.6,1.73-2.44.38-.32.95-.79,1.81-.92.28-.04.78-.11,1.35.13.62.26.95.72,1.07.92.26-.45.61-.96,1.07-1.48.73-.83,1.49-1.39,2.09-1.76-.33-.39-.83-1.1-1.08-2.11-.1-.4-.29-1.21-.06-2.16.21-.85.65-1.4,1.15-1.99.77-.91,1.81-2.08,3.11-3.4-.41.08-1.45.23-2.64-.24ZM110.46,109.23c-.16.13-.3.26-.43.38-.05.6-.15,1.31-.36,2.09-.14.54-.31,1.03-.48,1.45-.17.24-.39.52-.66.79-.43.43-.87.74-1.22.94-.27.07-.57.14-.92.18-.67.07-1.24.02-1.68-.05-.25.46-.49.92-.74,1.38-.25-.39-.51-.8-.76-1.22-.2-.33-.38-.65-.56-.97-.37-.35-.73-.7-1.1-1.04.42-.22.83-.44,1.25-.66.2-.19.5-.49.87-.87.45-.46.51-.56,1.07-1.15.77-.82,1.21-1.24,1.35-1.38.39-.38.59-.56.81-.74.6-.46,1.17-.72,1.55-.87.08-.58.17-1.15.25-1.73.36.37.74.8,1.12,1.3.48.63.85,1.24,1.15,1.78-.16.11-.33.24-.51.38Z"/>
        <path class="st2" d="M93.24,101.03c.37-1.48.71-2.8,1.02-3.92.5-1.85.71-2.5,1.2-3.29.25-.41.79-1.27,1.76-2.01,1.12-.87,1.95-.91,4.43-1.71.73-.23,1.8-.6,3.11-1.12-1.37-.21-2.52-.51-3.44-.79-1.17-.36-1.77-.55-2.52-.99-.29-.17-1.51-.92-2.57-2.42-.68-.96-1.06-1.9-1.27-2.62-.29-1.95-.46-3.64-.56-4.99-.09-1.23-.24-3.14-.2-5.65.02-1.54.1-2.85.18-3.82.03-.3.14-1.01.66-1.71.54-.72,1.22-1.02,1.5-1.12-.26-.2-.58-.47-.92-.81,0,0-.68-.68-1.22-1.48-1.11-1.63-1.57-3.68-1.66-4.1,0,8.67,0,17.33,0,26,.22.53.56,1.18,1.07,1.86.83,1.09,1.75,1.76,2.39,2.14-.28.2-.67.51-1.07.94-1.03,1.14-1.39,2.35-1.56,2.98-.26.95-.3,1.71-.32,2.16-.1,2.28-.07,4.57,0,6.47Z"/>
        <path class="st2" d="M94.89,95.38c.63.24,1.3.47,2,.69.9.28,1.76.52,2.57.71h.8c.16.11.39.25.7.33.17.05.32.07.45.08-.43.28-1,.7-1.57,1.34-.21.23-.69.8-1.11,1.64-.37.73-.55,1.39-.88,3.34-.15.92-.33,2.08-.5,3.44-.49,4.61-.93,9.3-1.32,14.08-.22,2.73-.43,5.44-.61,8.12-.23.94-.53,1.95-.92,3.03-.4,1.11-.82,2.11-1.25,3.01v-32.09c.57-.94,1.14-1.88,1.71-2.83.39-.64.78-1.29,1.17-1.94-.16-.18-.36-.45-.53-.81-.14-.3-.18-.52-.28-.87-.09-.31-.22-.75-.43-1.27Z"/>
        <path class="st2" d="M96.19,81.91l1.22.44c.43-2.09.87-4.2,1.33-6.32.62-2.86,1.25-5.68,1.9-8.46-.91,2.1-1.83,4.24-2.73,6.4-.69,1.64-1.36,3.28-2.02,4.9l.31,3.05Z"/>
        <path class="st2" d="M98.35,82.87c.32.15.68.34,1.05.57.5.31.91.64,1.24.94,1.23-2.15,2.46-4.3,3.69-6.46.88-1.55,1.76-3.09,2.64-4.64-1.24,1.33-2.23,2.44-2.92,3.23-2.15,2.44-3.22,3.65-3.67,4.18-.16.2-.65.78-1.36,1.51-.28.29-.51.52-.67.67Z"/>
        <path class="st2" d="M101.59,85.24c.25.23.49.47.74.73.39.39.76.78,1.11,1.17,1.16-.96,2.34-1.93,3.51-2.92,1.4-1.18,2.78-2.36,4.13-3.53-1.68.82-3.37,1.64-5.08,2.46-1.48.71-2.95,1.41-4.41,2.1Z"/>
        <path class="st2" d="M108.65,87.13c.64.48,1.52,1.26,2.27,2.44,1.24,1.96,1.41,3.89,1.43,4.81,1.03-1.14,2.08-2.35,3.13-3.63,1.05-1.28,2.04-2.53,2.95-3.76-.12-.51-.5-1.8-1.68-2.9-1.34-1.25-2.86-1.48-3.36-1.53-.54.7-1.19,1.45-1.96,2.22-.97.96-1.92,1.73-2.78,2.34Z"/>
        <path class="st2" d="M114,81.85c.53.07,1.86.32,3.11,1.38,1.25,1.05,1.71,2.31,1.87,2.82.55-.87,1.22-2.11,1.69-3.7.42-1.41.57-2.67.61-3.63-.21-.38-.66-1.09-1.5-1.63-1.34-.86-2.72-.7-3.11-.64-.23.78-.55,1.68-1.02,2.65-.53,1.11-1.12,2.03-1.66,2.75Z"/>
        <path class="st2" d="M117.03,75.59c.43-.04,1.21-.05,2.09.28,1.21.46,1.9,1.29,2.16,1.66.1-.82.16-1.9,0-3.16-.19-1.46-.6-2.64-.97-3.46-.1-.13-.53-.64-1.3-.79-.79-.15-1.39.2-1.53.28.06.77.07,1.68-.03,2.7-.09.95-.25,1.79-.43,2.5Z"/>
        <path class="st2" d="M117.33,69.61c.22-.14.52-.29.9-.32.89-.07,1.43.6,1.6.46.24-.19-.52-1.79-2.08-3.92-1.15-1.57-2.24-2.76-3-3.53.57,1.13,1.01,2.1,1.34,2.85.62,1.43.81,2,.94,2.52.2.8.27,1.48.31,1.95Z"/>
      </g>
    </g>
  </g>
</svg>